<svg xmlns="http://www.w3.org/2000/svg" xmlns:xlink="http://www.w3.org/1999/xlink" width="132.783" height="139.077" viewBox="0 0 132.783 139.077"><defs><style>.a{fill:#0f0e19;}.b{fill:url(#c);}.c{opacity:0.69;fill:url(#f);}.d{fill:url(#g);}.e{fill:url(#h);}.f{fill:url(#k);}.g{filter:url(#l);}.h{filter:url(#i);}.i{filter:url(#d);}.j{filter:url(#a);}</style><filter id="a" x="0" y="0" width="132.783" height="139.077" filterUnits="userSpaceOnUse"><feOffset dy="7.002" input="SourceAlpha"/><feGaussianBlur stdDeviation="5.669" result="b"/><feFlood flood-color="#1a1818" flood-opacity="0.2"/><feComposite operator="in" in2="b"/><feComposite in="SourceGraphic"/></filter><linearGradient id="c" x1="2.235" y1="0.588" x2="-0.702" y2="0.439" gradientUnits="objectBoundingBox"><stop offset="0" stop-color="#c00033"/><stop offset="0.077" stop-color="#b60027"/><stop offset="0.156" stop-color="#b30023"/><stop offset="0.291" stop-color="#a3022a"/><stop offset="0.555" stop-color="#7a0a3f"/><stop offset="0.917" stop-color="#391660"/><stop offset="1" stop-color="#2a1969"/></linearGradient><filter id="d" x="17.491" y="40.862" width="65.899" height="62.604" filterUnits="userSpaceOnUse"><feOffset dy="2.835" input="SourceAlpha"/><feGaussianBlur stdDeviation="5.669" result="e"/><feFlood flood-color="#1a1818" flood-opacity="0.078"/><feComposite operator="in" in2="e"/><feComposite in="SourceGraphic"/></filter><linearGradient id="f" y1="-399.685" x2="1" y2="-399.685" gradientUnits="objectBoundingBox"><stop offset="0" stop-color="#361147" stop-opacity="0.102"/><stop offset="0.001" stop-color="#351046" stop-opacity="0.102"/><stop offset="0.153" stop-color="#2d0730" stop-opacity="0.604"/><stop offset="0.313" stop-color="#270122" stop-opacity="0.902"/><stop offset="0.493" stop-color="#26001e"/><stop offset="0.654" stop-color="#2c0421" stop-opacity="0.816"/><stop offset="0.888" stop-color="#3f0f2b" stop-opacity="0.306"/><stop offset="1" stop-color="#4b1732" stop-opacity="0"/></linearGradient><linearGradient id="g" x1="-0.088" y1="-311.681" x2="1.697" y2="-312.709" gradientUnits="objectBoundingBox"><stop offset="0.138" stop-color="#b30023"/><stop offset="0.266" stop-color="#9b052f"/><stop offset="0.534" stop-color="#5e144f"/><stop offset="0.562" stop-color="#581653"/><stop offset="0.683" stop-color="#521655"/><stop offset="0.83" stop-color="#44175c"/><stop offset="0.989" stop-color="#2b1868"/><stop offset="1" stop-color="#2a1969"/></linearGradient><linearGradient id="h" x1="0.266" y1="1.029" x2="1.47" y2="-1.693" gradientUnits="objectBoundingBox"><stop offset="0" stop-color="#cd002f"/><stop offset="0.325" stop-color="#ae0721"/><stop offset="1" stop-color="#482080"/></linearGradient><filter id="i" x="28.119" y="42.054" width="44.643" height="72.984" filterUnits="userSpaceOnUse"><feOffset dy="2.835" input="SourceAlpha"/><feGaussianBlur stdDeviation="5.669" result="j"/><feFlood flood-color="#1a1818" flood-opacity="0.078"/><feComposite operator="in" in2="j"/><feComposite in="SourceGraphic"/></filter><linearGradient id="k" x1="0.014" y1="0.497" x2="1.128" y2="0.504" gradientUnits="objectBoundingBox"><stop offset="0" stop-color="#b30023"/><stop offset="1" stop-color="#482080"/></linearGradient><filter id="l" x="28.157" y="14.954" width="86.505" height="87.154" filterUnits="userSpaceOnUse"><feOffset dy="2.835" input="SourceAlpha"/><feGaussianBlur stdDeviation="5.669" result="m"/><feFlood flood-color="#1a1818" flood-opacity="0.078"/><feComposite operator="in" in2="m"/><feComposite in="SourceGraphic"/></filter></defs><g transform="translate(17.008 10.006)"><g class="j" transform="matrix(1, 0, 0, 1, -17.01, -10.01)"><path class="a" d="M113.287,48.812V99.294c0,15.074-11.486,27.287-25.656,27.287H40.176c-14.17,0-25.656-12.213-25.656-27.287V48.812c0-15.074,11.486-27.292,25.656-27.292H87.631C101.8,21.52,113.287,33.738,113.287,48.812Z" transform="translate(2.49 -11.51)"/></g><g class="i" transform="matrix(1, 0, 0, 1, -17.01, -10.01)"><path class="b" d="M83.408,126.858v10.671a56.033,56.033,0,0,1-21.255-6.377c-3.826-2.039-7.392-5.3-10.628-8.132V108.94c2.944,4.066,6.534,6.841,10.628,9.75.452.323.913.638,1.377.944a45.563,45.563,0,0,0,19.878,7.223Z" transform="translate(-17.03 -53.9)"/></g><path class="c" d="M84.6,134.3V145.32c-.764-.193-1.515-.394-2.264-.614A55.814,55.814,0,0,1,71.7,140.361c-.7-.37-1.386-.783-2.066-1.228V126.4c.673.5,1.362,1,2.066,1.5.452.323.913.638,1.377.944a45.47,45.47,0,0,0,9.25,4.684C83.076,133.8,83.832,134.063,84.6,134.3Z" transform="translate(-43.586 -72.918)"/><g transform="translate(47.849 26.958)"><path class="d" d="M142.119,96.5c1.075-4.63-1.2-8.987-4.687-10.242-3.984-1.433-8.511,1.554-8.853,3.125a22.642,22.642,0,0,0-.346,2.725c-.023.327-.026.455-.032.519a6.3,6.3,0,0,1-11.331,3c-3.417-4.86,1.582-11.526,7.23-9.477a.029.029,0,0,0,0-.021,5.886,5.886,0,0,0,3.087-.04,6.806,6.806,0,0,0,4.513-6.6,7.264,7.264,0,0,0-2.43-5.034,9.147,9.147,0,0,1,5.555.173C140.432,76.754,143.686,85.577,142.119,96.5Z" transform="translate(-115.753 -74.118)"/></g><g class="h" transform="matrix(1, 0, 0, 1, -17.01, -10.01)"><rect class="e" width="10.628" height="38.968" transform="translate(45.13 56.23)"/></g><g transform="translate(28.157 19.121)"><g class="g" transform="matrix(1, 0, 0, 1, -45.17, -29.13)"><path class="f" d="M126.581,83.636a26.557,26.557,0,0,1-25.129,26.53h-.02c-.468.027-.944.039-1.421.039-.417,0-.823-.008-1.232-.031V99.554c.2.008.406.008.61.012s.414.012.622.012.429,0,.641-.012A15.942,15.942,0,1,0,85.184,77.783H74.092a26.571,26.571,0,0,1,52.489,5.853Z" transform="translate(-28.93 -27.94)"/></g></g></g></svg>