<svg xmlns="http://www.w3.org/2000/svg" xmlns:xlink="http://www.w3.org/1999/xlink" width="204.175" height="215.018" viewBox="0 0 204.175 215.018"><defs><filter id="a" x="0" y="0" width="204.175" height="215.018" filterUnits="userSpaceOnUse"><feOffset dy="7.002" input="SourceAlpha"/><feGaussianBlur stdDeviation="5.669" result="b"/><feFlood flood-color="#1a1818" flood-opacity="0.2"/><feComposite operator="in" in2="b"/><feComposite in="SourceGraphic"/></filter><linearGradient id="c" x1="2.235" y1="0.588" x2="-0.702" y2="0.439" gradientUnits="objectBoundingBox"><stop offset="0" stop-color="#c00033"/><stop offset="0.077" stop-color="#b60027"/><stop offset="0.156" stop-color="#b30023"/><stop offset="0.291" stop-color="#a3022a"/><stop offset="0.555" stop-color="#7a0a3f"/><stop offset="0.917" stop-color="#391660"/><stop offset="1" stop-color="#2a1969"/></linearGradient><filter id="d" x="30.134" y="73.41" width="88.944" height="83.269" filterUnits="userSpaceOnUse"><feOffset dy="2.835" input="SourceAlpha"/><feGaussianBlur stdDeviation="5.669" result="e"/><feFlood flood-color="#1a1818" flood-opacity="0.078"/><feComposite operator="in" in2="e"/><feComposite in="SourceGraphic"/></filter><linearGradient id="f" y1="-399.685" x2="1" y2="-399.685" gradientUnits="objectBoundingBox"><stop offset="0" stop-color="#361147" stop-opacity="0.102"/><stop offset="0.001" stop-color="#351046" stop-opacity="0.102"/><stop offset="0.153" stop-color="#2d0730" stop-opacity="0.604"/><stop offset="0.313" stop-color="#270122" stop-opacity="0.902"/><stop offset="0.493" stop-color="#26001e"/><stop offset="0.654" stop-color="#2c0421" stop-opacity="0.816"/><stop offset="0.888" stop-color="#3f0f2b" stop-opacity="0.306"/><stop offset="1" stop-color="#4b1732" stop-opacity="0"/></linearGradient><linearGradient id="g" x1="-0.088" y1="-311.681" x2="1.697" y2="-312.709" gradientUnits="objectBoundingBox"><stop offset="0.138" stop-color="#b30023"/><stop offset="0.266" stop-color="#9b052f"/><stop offset="0.534" stop-color="#5e144f"/><stop offset="0.562" stop-color="#581653"/><stop offset="0.683" stop-color="#521655"/><stop offset="0.83" stop-color="#44175c"/><stop offset="0.989" stop-color="#2b1868"/><stop offset="1" stop-color="#2a1969"/></linearGradient><linearGradient id="h" x1="0.266" y1="1.029" x2="1.47" y2="-1.693" gradientUnits="objectBoundingBox"><stop offset="0" stop-color="#cd002f"/><stop offset="0.325" stop-color="#ae0721"/><stop offset="1" stop-color="#482080"/></linearGradient><filter id="i" x="48.443" y="75.463" width="52.325" height="101.151" filterUnits="userSpaceOnUse"><feOffset dy="2.835" input="SourceAlpha"/><feGaussianBlur stdDeviation="5.669" result="j"/><feFlood flood-color="#1a1818" flood-opacity="0.078"/><feComposite operator="in" in2="j"/><feComposite in="SourceGraphic"/></filter><linearGradient id="k" x1="0.014" y1="0.497" x2="1.128" y2="0.504" gradientUnits="objectBoundingBox"><stop offset="0" stop-color="#b30023"/><stop offset="1" stop-color="#482080"/></linearGradient><filter id="l" x="48.51" y="28.775" width="124.445" height="125.563" filterUnits="userSpaceOnUse"><feOffset dy="2.835" input="SourceAlpha"/><feGaussianBlur stdDeviation="5.669" result="m"/><feFlood flood-color="#1a1818" flood-opacity="0.078"/><feComposite operator="in" in2="m"/><feComposite in="SourceGraphic"/></filter></defs><g transform="translate(2.488 -11.514)"><g transform="matrix(1, 0, 0, 1, -2.49, 11.51)" filter="url(#a)"><path d="M184.679,68.54v86.971c0,25.97-19.788,47.011-44.2,47.011H58.721c-24.413,0-44.2-21.041-44.2-47.011V68.54c0-25.97,19.788-47.02,44.2-47.02h81.757C164.891,21.52,184.679,42.57,184.679,68.54Z" transform="translate(2.49 -11.51)" fill="#0f0e19"/></g><g transform="matrix(1, 0, 0, 1, -2.49, 11.51)" filter="url(#d)"><path d="M106.454,139.809v18.384a96.535,96.535,0,0,1-36.619-10.986c-6.592-3.513-12.736-9.128-18.31-14.01V108.94c5.072,7.006,11.257,11.786,18.31,16.8.779.556,1.573,1.1,2.373,1.627a78.5,78.5,0,0,0,34.246,12.444Z" transform="translate(-4.38 -21.36)" fill="url(#c)"/></g><path d="M95.407,140.007v18.987c-1.316-.332-2.611-.678-3.9-1.058A96.159,96.159,0,0,1,73.2,150.45c-1.2-.638-2.388-1.349-3.56-2.116V126.4c1.16.862,2.346,1.716,3.56,2.577.779.556,1.573,1.1,2.373,1.627a78.337,78.337,0,0,0,15.936,8.07C92.789,139.152,94.091,139.6,95.407,140.007Z" transform="translate(-10.235 -12.738)" opacity="0.69" fill="url(#f)"/><g transform="translate(96.955 67.963)"><path d="M161.177,112.681c1.853-7.977-2.065-15.483-8.076-17.645-6.863-2.468-14.662,2.677-15.252,5.383a39.011,39.011,0,0,0-.6,4.695c-.04.563-.044.784-.055.895-.932,9.737-13.913,13.141-19.521,5.162-5.887-8.374,2.725-19.858,12.457-16.328a.051.051,0,0,0,0-.037,10.141,10.141,0,0,0,5.319-.069c4.656-1.395,7.9-6.407,7.776-11.365a12.515,12.515,0,0,0-4.186-8.673,15.759,15.759,0,0,1,9.57.3C158.271,78.66,163.877,93.859,161.177,112.681Z" transform="translate(-115.753 -74.118)" fill="url(#g)"/></g><g transform="matrix(1, 0, 0, 1, -2.49, 11.51)" filter="url(#i)"><rect width="18.31" height="67.135" transform="translate(65.45 89.64)" fill="url(#h)"/></g><g transform="translate(63.03 54.462)"><g transform="matrix(1, 0, 0, 1, -65.52, -42.95)" filter="url(#l)"><path d="M164.521,102.84a45.753,45.753,0,0,1-43.292,45.707H121.2c-.807.047-1.627.068-2.448.068-.719,0-1.418-.013-2.123-.054v-18.3c.346.013.7.013,1.051.02s.713.02,1.072.02.739-.007,1.105-.02A27.466,27.466,0,1,0,93.2,92.757H74.092a45.777,45.777,0,0,1,90.429,10.084Z" transform="translate(-8.57 -14.12)" fill="url(#k)"/></g></g></g></svg>