<svg xmlns="http://www.w3.org/2000/svg" xmlns:xlink="http://www.w3.org/1999/xlink" width="1280" height="4575" viewBox="0 0 1280 4575"><defs><style>.a{clip-path:url(#x);}.b{opacity:0.09;fill:url(#b);}.c{fill:url(#c);}.d{fill:url(#f);}.e{stroke:rgba(0,0,0,0);fill:url(#l);}.f{fill:url(#o);}.g{fill:url(#p);}.h{opacity:0.69;fill:url(#s);}.i{fill:url(#t);}.j{fill:#b50625;}.k{fill:url(#a);}.l{filter:url(#u);}.m{filter:url(#q);}.n{filter:url(#m);}.o{filter:url(#j);}.p{filter:url(#g);}.q{filter:url(#d);}</style><radialGradient id="a" cx="-0.151" cy="0.48" r="0.358" gradientTransform="matrix(3.353, -0.027, 0.234, 2.546, 0.244, -0.747)" gradientUnits="objectBoundingBox"><stop offset="0" stop-color="#210133"/><stop offset="1" stop-color="#0f0e19"/></radialGradient><radialGradient id="b" cx="0.484" cy="0.48" r="0.405" gradientTransform="translate(0 -0.005) scale(1 1.011)" gradientUnits="objectBoundingBox"><stop offset="0" stop-color="#f0f"/><stop offset="1" stop-color="#ff2156" stop-opacity="0"/></radialGradient><linearGradient id="c" x1="2.037" y1="0.353" x2="-1.817" y2="-0.339" gradientUnits="objectBoundingBox"><stop offset="0" stop-color="#b30023"/><stop offset="0.138" stop-color="#b30023"/><stop offset="0.266" stop-color="#9b052f"/><stop offset="0.534" stop-color="#5e144f"/><stop offset="0.562" stop-color="#581653"/><stop offset="0.683" stop-color="#521655"/><stop offset="0.83" stop-color="#44175c"/><stop offset="0.955" stop-color="#2b1868"/><stop offset="1" stop-color="#2a1969"/></linearGradient><filter id="d" x="-415.563" y="2929.146" width="2483.877" height="1978.023" filterUnits="userSpaceOnUse"><feOffset dy="2.835" input="SourceAlpha"/><feGaussianBlur stdDeviation="5.669" result="e"/><feFlood flood-color="#1a1818" flood-opacity="0.078"/><feComposite operator="in" in2="e"/><feComposite in="SourceGraphic"/></filter><linearGradient id="f" x1="2.235" y1="0.588" x2="-0.702" y2="0.439" gradientUnits="objectBoundingBox"><stop offset="0" stop-color="#c00033"/><stop offset="0.077" stop-color="#b60027"/><stop offset="0.156" stop-color="#b30023"/><stop offset="0.291" stop-color="#a3022a"/><stop offset="0.555" stop-color="#7a0a3f"/><stop offset="0.917" stop-color="#391660"/><stop offset="1" stop-color="#2a1969"/></linearGradient><filter id="g" x="246.992" y="-190.25" width="691.56" height="628.042" filterUnits="userSpaceOnUse"><feOffset dy="2.835" input="SourceAlpha"/><feGaussianBlur stdDeviation="5.669" result="h"/><feFlood flood-color="#1a1818" flood-opacity="0.078"/><feComposite operator="in" in2="h"/><feComposite in="SourceGraphic"/></filter><filter id="j" x="-17.008" y="903.417" width="2016.691" height="1355.812" filterUnits="userSpaceOnUse"><feOffset dy="2.835" input="SourceAlpha"/><feGaussianBlur stdDeviation="5.669" result="k"/><feFlood flood-color="#1a1818" flood-opacity="0.078"/><feComposite operator="in" in2="k"/><feComposite in="SourceGraphic"/></filter><linearGradient id="l" x1="-0.434" y1="-0.11" x2="3.06" y2="3.108" gradientUnits="objectBoundingBox"><stop offset="0" stop-color="#cd002f"/><stop offset="1" stop-color="#482080"/></linearGradient><filter id="m" x="-231.941" y="1513.907" width="1004.479" height="1772.552" filterUnits="userSpaceOnUse"><feOffset dy="5" input="SourceAlpha"/><feGaussianBlur stdDeviation="10" result="n"/><feFlood flood-color="#1a1818" flood-opacity="0.078"/><feComposite operator="in" in2="n"/><feComposite in="SourceGraphic"/></filter><linearGradient id="o" x1="-0.798" y1="1.18" x2="1.905" y2="-0.423" gradientUnits="objectBoundingBox"><stop offset="0" stop-color="#b30023"/><stop offset="0.138" stop-color="#b30023"/><stop offset="0.266" stop-color="#9b052f"/><stop offset="0.563" stop-color="#5e144f"/><stop offset="0.615" stop-color="#581653"/><stop offset="0.683" stop-color="#521655"/><stop offset="0.83" stop-color="#44175c"/><stop offset="1" stop-color="#2a1969"/></linearGradient><linearGradient id="p" x1="0.014" y1="0.497" x2="1.516" y2="0.261" gradientUnits="objectBoundingBox"><stop offset="0" stop-color="#b30023"/><stop offset="1" stop-color="#482080"/></linearGradient><filter id="q" x="746.828" y="17.434" width="421.58" height="426.239" filterUnits="userSpaceOnUse"><feOffset dy="3" input="SourceAlpha"/><feGaussianBlur stdDeviation="7.5" result="r"/><feFlood flood-color="#1a1818" flood-opacity="0.078"/><feComposite operator="in" in2="r"/><feComposite in="SourceGraphic"/></filter><linearGradient id="s" y1="-398.588" x2="1" y2="-398.588" gradientUnits="objectBoundingBox"><stop offset="0" stop-color="#361147" stop-opacity="0.102"/><stop offset="0.001" stop-color="#351046" stop-opacity="0.102"/><stop offset="0.153" stop-color="#2d0730" stop-opacity="0.604"/><stop offset="0.313" stop-color="#270122" stop-opacity="0.902"/><stop offset="0.493" stop-color="#26001e"/><stop offset="0.654" stop-color="#2c0421" stop-opacity="0.816"/><stop offset="0.888" stop-color="#3f0f2b" stop-opacity="0.306"/><stop offset="1" stop-color="#4b1732" stop-opacity="0"/></linearGradient><linearGradient id="t" x1="0.266" y1="1.029" x2="1.47" y2="-1.693" gradientUnits="objectBoundingBox"><stop offset="0" stop-color="#cd002f"/><stop offset="0.325" stop-color="#ae0721"/><stop offset="1" stop-color="#482080"/></linearGradient><filter id="u" x="746.409" y="196.9" width="121.746" height="1366.599" filterUnits="userSpaceOnUse"><feOffset dy="3" input="SourceAlpha"/><feGaussianBlur stdDeviation="7.5" result="v"/><feFlood flood-color="#1a1818" flood-opacity="0.078"/><feComposite operator="in" in2="v"/><feComposite in="SourceGraphic"/></filter><clipPath id="x"><rect width="1280" height="4575"/></clipPath></defs><g id="w" class="a"><rect class="k" width="1280" height="4575"/><ellipse class="b" cx="459.097" cy="459.097" rx="459.097" ry="459.097" transform="translate(308 -60)"/><g class="q" transform="matrix(1, 0, 0, 1, 0, 0)"><path class="c" d="M2299.278,819.285l-31.4,97.973S1664.667,820.45,1107.907,616.133,43.968,123.922,4.964,102.856L0,0C35.494,30.226,574.518,322.35,1140.369,527.888S2254.726,816.123,2299.278,819.285Z" transform="translate(-398.56 4092.96) rotate(-30)"/></g><g class="p" transform="matrix(1, 0, 0, 1, 0, 0)"><path class="d" d="M146.736,118.631v76.558a402.017,402.017,0,0,1-76.249-14.572A400.462,400.462,0,0,1-5.762,149.439C-33.21,134.814-487.592-277.49-510.808-297.823V-398.838c21.127,29.174,475.675,438,505.046,458.87q4.873,3.474,9.885,6.779a326.138,326.138,0,0,0,66.364,33.6A326,326,0,0,0,146.736,118.631Z" transform="translate(774.81 222.76)"/></g><g class="o" transform="matrix(1, 0, 0, 1, 0, 0)"><path class="d" d="M1471.868,808.258l-13.655,114.7S933.448,746.171,441.192,453.234s-917.515-671.819-952-702.022V-398.838c31.382,43.335,472.331,435.6,968,737.371S1432.477,803.724,1471.868,808.258Z" transform="translate(510.81 1316.43)"/></g><g class="n" transform="matrix(1, 0, 0, 1, 0, 0)"><path class="e" d="M-797.85,0h540.722s14.986.159,24.693,9.232,8.193,27.446,8.193,27.446l.086,674.439s37.728,1.265,332.984,1.265c2.779,0,15.083-1.68,26.226,9.275S145.176,756.2,145.176,756.2l.357,895.306s1.664,31.419-12.653,46.412-44.612,13.561-44.612,13.561H-630.395l14.231-70.748,438.626.446,203.8.207H84.2v-54.933L84.567,772.4H-224.157s-35.924,2.281-48.627-9.212-11.493-40.529-11.493-40.529-1.51-259.806-1.51-660.914H-797.85Z" transform="translate(596.41 1539.41)"/></g><g transform="translate(910.603 94.756)"><path class="f" d="M379.524,304.639c7.715-33.219-8.6-64.479-33.627-73.482-28.58-10.278-61.064,11.15-63.519,22.419a163.24,163.24,0,0,0-2.486,19.55c-.166,2.343-.18,3.266-.224,3.73-3.883,40.544-57.94,54.719-81.3,21.5-24.514-34.874,11.35-82.7,51.874-68a.23.23,0,0,0,.017-.153,42.232,42.232,0,0,0,22.151-.288c19.39-5.809,32.9-26.681,32.382-47.326-.505-20.248-14.317-33.308-17.437-36.119,18.658-4.541,31.676-1.858,39.856,1.245C367.422,162.961,390.769,226.257,379.524,304.639Z" transform="translate(-190.362 -144.046)"/></g><g transform="translate(769.328 36.934)"><g class="m" transform="matrix(1, 0, 0, 1, -769.33, -36.93)"><path class="g" d="M525.282,317.616A190.516,190.516,0,0,1,345,507.953h-.139c-3.361.2-6.779.281-10.2.281-2.991,0-5.9-.054-8.837-.224V431.819c1.438.054,2.906.054,4.375.085,1.5.054,2.967.085,4.463.085,1.526,0,3.079-.031,4.605-.085A114.376,114.376,0,1,0,228.281,275.621H148.7A190.646,190.646,0,0,1,334.661,126.995C439.941,126.995,525.282,212.336,525.282,317.616Z" transform="translate(620.63 -90.06)"/></g></g><path class="h" d="M251.559,252.983v79.071c-5.477-1.384-10.872-2.825-16.236-4.405a400.465,400.465,0,0,1-76.249-31.178c-5-2.652-9.939-5.619-14.826-8.81v-91.33c4.829,3.588,9.773,7.145,14.826,10.733q4.873,3.474,9.885,6.779a326.138,326.138,0,0,0,66.364,33.6C240.66,249.422,246.082,251.287,251.559,252.983Z" transform="translate(609.973 75.73)"/><g class="l" transform="matrix(1, 0, 0, 1, 0, 0)"><rect class="i" width="76.746" height="1321.599" transform="translate(768.91 216.4)"/></g><path class="j" d="M7.7,6.735h0Z" transform="translate(1053.489 933.903) rotate(180)"/></g></svg>