<svg xmlns="http://www.w3.org/2000/svg" xmlns:xlink="http://www.w3.org/1999/xlink" width="360" height="6039" viewBox="0 0 360 6039"><defs><style>.a{clip-path:url(#o);}.b{fill:url(#b);}.c{opacity:0.09;fill:url(#c);}.d{fill:url(#d);}.e{opacity:0.69;fill:url(#g);}.f{fill:url(#h);}.g{fill:url(#k);}.h{fill:url(#a);}.i{filter:url(#l);}.j{filter:url(#i);}.k{filter:url(#e);}</style><radialGradient id="a" cx="-0.151" cy="0.48" r="0.358" gradientTransform="matrix(3.353, -0.027, 0.234, 2.546, 0.244, -0.747)" gradientUnits="objectBoundingBox"><stop offset="0" stop-color="#210133"/><stop offset="1" stop-color="#0f0e19"/></radialGradient><linearGradient id="b" x1="-0.798" y1="1.18" x2="1.905" y2="-0.423" gradientUnits="objectBoundingBox"><stop offset="0" stop-color="#b30023"/><stop offset="0.138" stop-color="#b30023"/><stop offset="0.266" stop-color="#9b052f"/><stop offset="0.563" stop-color="#5e144f"/><stop offset="0.615" stop-color="#581653"/><stop offset="0.683" stop-color="#521655"/><stop offset="0.83" stop-color="#44175c"/><stop offset="1" stop-color="#2a1969"/></linearGradient><radialGradient id="c" cx="0.484" cy="0.48" r="0.405" gradientTransform="translate(0 -0.005) scale(1 1.011)" gradientUnits="objectBoundingBox"><stop offset="0" stop-color="#f0f"/><stop offset="1" stop-color="#ff2156" stop-opacity="0"/></radialGradient><linearGradient id="d" x1="2.235" y1="0.588" x2="-0.702" y2="0.439" gradientUnits="objectBoundingBox"><stop offset="0" stop-color="#c00033"/><stop offset="0.077" stop-color="#b60027"/><stop offset="0.156" stop-color="#b30023"/><stop offset="0.291" stop-color="#a3022a"/><stop offset="0.555" stop-color="#7a0a3f"/><stop offset="0.917" stop-color="#391660"/><stop offset="1" stop-color="#2a1969"/></linearGradient><filter id="e" x="-336.156" y="-125.713" width="484.686" height="441.152" filterUnits="userSpaceOnUse"><feOffset dy="2.835" input="SourceAlpha"/><feGaussianBlur stdDeviation="5.669" result="f"/><feFlood flood-color="#1a1818" flood-opacity="0.078"/><feComposite operator="in" in2="f"/><feComposite in="SourceGraphic"/></filter><linearGradient id="g" y1="-398.588" x2="1" y2="-398.588" gradientUnits="objectBoundingBox"><stop offset="0" stop-color="#361147" stop-opacity="0.102"/><stop offset="0.001" stop-color="#351046" stop-opacity="0.102"/><stop offset="0.153" stop-color="#2d0730" stop-opacity="0.604"/><stop offset="0.313" stop-color="#270122" stop-opacity="0.902"/><stop offset="0.493" stop-color="#26001e"/><stop offset="0.654" stop-color="#2c0421" stop-opacity="0.816"/><stop offset="0.888" stop-color="#3f0f2b" stop-opacity="0.306"/><stop offset="1" stop-color="#4b1732" stop-opacity="0"/></linearGradient><linearGradient id="h" x1="2.225" y1="0.219" x2="1.47" y2="-1.693" gradientUnits="objectBoundingBox"><stop offset="0" stop-color="#cd002f" stop-opacity="0.2"/><stop offset="0.12" stop-color="#ae0721"/><stop offset="1" stop-color="#482080"/></linearGradient><filter id="i" x="4.409" y="137.957" width="97.601" height="5036.484" filterUnits="userSpaceOnUse"><feOffset dy="3" input="SourceAlpha"/><feGaussianBlur stdDeviation="7.5" result="j"/><feFlood flood-color="#1a1818" flood-opacity="0.078"/><feComposite operator="in" in2="j"/><feComposite in="SourceGraphic"/></filter><linearGradient id="k" x1="0.014" y1="0.497" x2="1.516" y2="0.261" gradientUnits="objectBoundingBox"><stop offset="0" stop-color="#b30023"/><stop offset="1" stop-color="#482080"/></linearGradient><filter id="l" x="4.695" y="14.954" width="303.102" height="306.295" filterUnits="userSpaceOnUse"><feOffset dy="3" input="SourceAlpha"/><feGaussianBlur stdDeviation="7.5" result="m"/><feFlood flood-color="#1a1818" flood-opacity="0.078"/><feComposite operator="in" in2="m"/><feComposite in="SourceGraphic"/></filter><clipPath id="o"><rect width="360" height="6039"/></clipPath></defs><g id="n" class="a"><rect class="h" width="360" height="6039"/><g transform="translate(-5922.253 -1137.328)"><g transform="translate(6046.275 1211.413)"><path class="b" d="M320.011,254.114c5.288-22.768-5.892-44.193-23.047-50.364-19.588-7.044-41.852,7.642-43.535,15.366a111.862,111.862,0,0,0-1.7,13.4c-.114,1.606-.123,2.238-.153,2.557-2.661,27.788-39.711,37.5-55.718,14.733-16.8-23.9,7.779-56.681,35.554-46.605a.158.158,0,0,0,.012-.1,28.944,28.944,0,0,0,15.182-.2c13.29-3.981,22.547-18.287,22.194-32.437-.346-13.878-9.813-22.828-11.951-24.755,12.788-3.112,21.71-1.274,27.316.853C311.716,157.01,327.718,200.392,320.011,254.114Z" transform="translate(-190.362 -144.046)"/></g><ellipse class="c" cx="314.657" cy="314.657" rx="314.657" ry="314.657" transform="translate(5767.312 980)"/><g class="k" transform="matrix(1, 0, 0, 1, 5922.25, 1137.33)"><path class="d" d="M-60.138-44.173V8.3A275.533,275.533,0,0,1-112.4-1.689a274.467,274.467,0,0,1-52.26-21.369C-183.47-33.082-494.9-315.668-510.808-329.6v-69.234c14.48,20,326.02,300.2,346.15,314.5q3.34,2.381,6.775,4.646A223.529,223.529,0,0,0-112.4-56.659,223.435,223.435,0,0,0-60.138-44.173Z" transform="translate(191.66 287.3)"/></g><path class="e" d="M217.8,235.159v54.194c-3.754-.948-7.451-1.936-11.128-3.019a274.477,274.477,0,0,1-52.26-21.369c-3.426-1.818-6.812-3.851-10.161-6.038v-62.6c3.31,2.459,6.7,4.9,10.161,7.356q3.34,2.381,6.775,4.646a223.53,223.53,0,0,0,45.485,23.031C210.327,232.719,214.043,234,217.8,235.159Z" transform="translate(5794.847 1136.603)"/><g class="j" transform="matrix(1, 0, 0, 1, 5922.25, 1137.33)"><path class="f" d="M99.368,0h52.6V4991.484h-51.46Z" transform="translate(-72.46 157.46)"/></g><g transform="translate(5949.448 1171.782)"><g class="i" transform="matrix(1, 0, 0, 1, -27.2, -34.45)"><path class="g" d="M406.8,257.644A130.577,130.577,0,0,1,283.239,388.1h-.1c-2.3.135-4.646.193-6.989.193-2.05,0-4.044-.037-6.057-.153v-52.22c.985.037,1.992.037,3,.058,1.027.037,2.034.058,3.059.058,1.046,0,2.11-.021,3.156-.058a78.391,78.391,0,1,0-76.067-107.114H148.7a130.657,130.657,0,0,1,258.1,28.783Z" transform="translate(-121.51 -92.54)"/></g></g></g></g></svg>