<svg xmlns="http://www.w3.org/2000/svg" xmlns:xlink="http://www.w3.org/1999/xlink" width="1920" height="6440" viewBox="0 0 1920 6440"><defs><radialGradient id="a" cx="-0.151" cy="0.48" r="0.358" gradientTransform="matrix(3.353, -0.027, 0.234, 2.546, 0.244, -0.747)" gradientUnits="objectBoundingBox"><stop offset="0" stop-color="#210133"/><stop offset="1" stop-color="#0f0e19"/></radialGradient><radialGradient id="b" cx="0.484" cy="0.48" r="0.405" gradientTransform="translate(0 -0.005) scale(1 1.011)" gradientUnits="objectBoundingBox"><stop offset="0" stop-color="#f0f"/><stop offset="1" stop-color="#ff2156" stop-opacity="0"/></radialGradient><linearGradient id="c" x1="2.037" y1="0.353" x2="-1.817" y2="-0.339" gradientUnits="objectBoundingBox"><stop offset="0" stop-color="#b30023"/><stop offset="0.138" stop-color="#b30023"/><stop offset="0.266" stop-color="#9b052f"/><stop offset="0.534" stop-color="#5e144f"/><stop offset="0.562" stop-color="#581653"/><stop offset="0.683" stop-color="#521655"/><stop offset="0.83" stop-color="#44175c"/><stop offset="0.955" stop-color="#2b1868"/><stop offset="1" stop-color="#2a1969"/></linearGradient><filter id="d" x="-368.563" y="4412.291" width="2797.489" height="2226.879" filterUnits="userSpaceOnUse"><feOffset dy="2.835" input="SourceAlpha"/><feGaussianBlur stdDeviation="5.669" result="e"/><feFlood flood-color="#1a1818" flood-opacity="0.078"/><feComposite operator="in" in2="e"/><feComposite in="SourceGraphic"/></filter><linearGradient id="f" x1="-0.798" y1="1.18" x2="1.905" y2="-0.423" gradientUnits="objectBoundingBox"><stop offset="0" stop-color="#b30023"/><stop offset="0.138" stop-color="#b30023"/><stop offset="0.266" stop-color="#9b052f"/><stop offset="0.563" stop-color="#5e144f"/><stop offset="0.615" stop-color="#581653"/><stop offset="0.683" stop-color="#521655"/><stop offset="0.83" stop-color="#44175c"/><stop offset="1" stop-color="#2a1969"/></linearGradient><linearGradient id="g" x1="0.014" y1="0.497" x2="1.516" y2="0.261" gradientUnits="objectBoundingBox"><stop offset="0" stop-color="#b30023"/><stop offset="1" stop-color="#482080"/></linearGradient><filter id="h" x="1144.122" y="61.792" width="604.378" height="611.299" filterUnits="userSpaceOnUse"><feOffset dy="3" input="SourceAlpha"/><feGaussianBlur stdDeviation="7.5" result="i"/><feFlood flood-color="#1a1818" flood-opacity="0.078"/><feComposite operator="in" in2="i"/><feComposite in="SourceGraphic"/></filter><linearGradient id="j" x1="2.235" y1="0.588" x2="-0.702" y2="0.439" gradientUnits="objectBoundingBox"><stop offset="0" stop-color="#c00033"/><stop offset="0.077" stop-color="#b60027"/><stop offset="0.156" stop-color="#b30023"/><stop offset="0.291" stop-color="#a3022a"/><stop offset="0.555" stop-color="#7a0a3f"/><stop offset="0.917" stop-color="#391660"/><stop offset="1" stop-color="#2a1969"/></linearGradient><filter id="k" x="398.992" y="-249.291" width="1010.743" height="916.393" filterUnits="userSpaceOnUse"><feOffset dy="2.835" input="SourceAlpha"/><feGaussianBlur stdDeviation="5.669" result="l"/><feFlood flood-color="#1a1818" flood-opacity="0.078"/><feComposite operator="in" in2="l"/><feComposite in="SourceGraphic"/></filter><filter id="n" x="-17.008" y="903.417" width="2016.692" height="1355.812" filterUnits="userSpaceOnUse"><feOffset dy="2.835" input="SourceAlpha"/><feGaussianBlur stdDeviation="5.669" result="o"/><feFlood flood-color="#1a1818" flood-opacity="0.078"/><feComposite operator="in" in2="o"/><feComposite in="SourceGraphic"/></filter><linearGradient id="p" y1="-398.588" x2="1" y2="-398.588" gradientUnits="objectBoundingBox"><stop offset="0" stop-color="#361147" stop-opacity="0.102"/><stop offset="0.001" stop-color="#351046" stop-opacity="0.102"/><stop offset="0.153" stop-color="#2d0730" stop-opacity="0.604"/><stop offset="0.313" stop-color="#270122" stop-opacity="0.902"/><stop offset="0.493" stop-color="#26001e"/><stop offset="0.654" stop-color="#2c0421" stop-opacity="0.816"/><stop offset="0.888" stop-color="#3f0f2b" stop-opacity="0.306"/><stop offset="1" stop-color="#4b1732" stop-opacity="0"/></linearGradient><linearGradient id="q" x1="0.266" y1="1.029" x2="1.47" y2="-1.693" gradientUnits="objectBoundingBox"><stop offset="0" stop-color="#cd002f"/><stop offset="0.325" stop-color="#ae0721"/><stop offset="1" stop-color="#482080"/></linearGradient><filter id="r" x="1143.5" y="328.375" width="159" height="2008.125" filterUnits="userSpaceOnUse"><feOffset dy="3" input="SourceAlpha"/><feGaussianBlur stdDeviation="7.5" result="s"/><feFlood flood-color="#1a1818" flood-opacity="0.078"/><feComposite operator="in" in2="s"/><feComposite in="SourceGraphic"/></filter><linearGradient id="t" x1="-0.434" y1="-0.11" x2="3.06" y2="3.108" gradientUnits="objectBoundingBox"><stop offset="0" stop-color="#cd002f"/><stop offset="1" stop-color="#482080"/></linearGradient><filter id="u" x="-415.704" y="2066.191" width="1552.357" height="2766.45" filterUnits="userSpaceOnUse"><feOffset dy="5" input="SourceAlpha"/><feGaussianBlur stdDeviation="10" result="v"/><feFlood flood-color="#1a1818" flood-opacity="0.078"/><feComposite operator="in" in2="v"/><feComposite in="SourceGraphic"/></filter><clipPath id="x"><rect width="1920" height="6440"/></clipPath></defs><g id="w" clip-path="url(#x)"><rect width="1920" height="6440" fill="url(#a)"/><circle cx="1054" cy="1054" r="1054" transform="translate(434 -705)" opacity="0.09" fill="url(#b)"/><g transform="matrix(1, 0, 0, 1, 0, 0)" filter="url(#d)"><path d="M2593.613,924.164,2558.2,1034.678s-680.432-109.2-1308.464-339.673S49.6,139.786,5.6,116.023L0,0C40.038,34.095,648.064,363.614,1286.35,595.464S2543.357,920.6,2593.613,924.164Z" transform="translate(-351.56 5723.27) rotate(-30)" fill="url(#c)"/></g><g transform="translate(1376.473 167.183)"><path d="M471.347,382.593c11.46-49.345-12.77-95.778-49.949-109.152-42.453-15.267-90.7,16.562-94.352,33.3a242.491,242.491,0,0,0-3.692,29.039c-.247,3.481-.267,4.851-.332,5.541-5.768,60.225-86.066,81.281-120.757,31.931-36.414-51.8,16.86-122.843,77.054-101.006a.342.342,0,0,0,.025-.227,62.732,62.732,0,0,0,32.9-.428c28.8-8.629,48.866-39.633,48.1-70.3-.75-30.077-21.267-49.476-25.9-53.651,27.715-6.745,47.053-2.76,59.2,1.849C453.369,172.143,488.05,266.163,471.347,382.593Z" transform="translate(-190.362 -144.046)" fill="url(#f)"/></g><g transform="translate(1166.622 81.292)"><g transform="matrix(1, 0, 0, 1, -1166.62, -81.29)" filter="url(#h)"><path d="M708.08,410.147a281.649,281.649,0,0,1-14.386,89.224C657.909,607.384,558.787,686.544,440.281,692.876h-.206c-4.992.292-10.07.418-15.147.418-4.443,0-8.765-.081-13.127-.332V579.786c2.136.081,4.317.081,6.5.126,2.227.081,4.408.126,6.629.126,2.267,0,4.574-.046,6.841-.126A169.9,169.9,0,1,0,266.911,347.766H148.7C177.1,221.377,289.981,126.995,424.928,126.995,581.313,126.995,708.08,253.762,708.08,410.147Z" transform="translate(1017.92 -45.7)" fill="url(#g)"/></g></g><g transform="matrix(1, 0, 0, 1, 0, 0)" filter="url(#k)"><path d="M465.919,369.819v113.72a597.163,597.163,0,0,1-113.262-21.645A594.852,594.852,0,0,1,239.4,415.582c-40.771-21.725-715.719-634.167-750.2-664.37V-398.838c31.382,43.335,706.576,650.614,750.2,681.614q7.238,5.161,14.683,10.069a484.451,484.451,0,0,0,98.578,49.914A484.246,484.246,0,0,0,465.919,369.819Z" transform="translate(926.81 163.72)" fill="url(#j)"/></g><g transform="matrix(1, 0, 0, 1, 0, 0)" filter="url(#n)"><path d="M1471.868,808.258l-13.655,114.7S933.448,746.171,441.192,453.234s-917.515-671.819-952-702.022V-398.838c31.382,43.335,472.331,435.6,968,737.371S1432.477,803.724,1471.868,808.258Z" transform="translate(510.81 1316.43)" fill="url(#j)"/></g><path d="M303.65,280.483V397.936c-8.135-2.055-16.149-4.2-24.118-6.543A594.861,594.861,0,0,1,166.27,345.08c-7.425-3.939-14.764-8.346-22.023-13.087V196.331c7.173,5.329,14.517,10.614,22.023,15.943q7.239,5.161,14.683,10.069a484.45,484.45,0,0,0,98.579,49.914C287.461,275.194,295.515,277.964,303.65,280.483Z" transform="translate(999.934 234.222)" opacity="0.69" fill="url(#p)"/><g transform="matrix(1, 0, 0, 1, 0, 0)" filter="url(#r)"><rect width="114" height="1963.125" transform="translate(1166 347.87)" fill="url(#q)"/></g><g transform="matrix(1, 0, 0, 1, 0, 0)" filter="url(#u)"><path d="M-797.85,0H56.869S80.558.251,95.9,14.593s12.95,43.384,12.95,43.384l.135,1066.086s59.637,2,526.348,2c4.393,0,23.842-2.656,41.456,14.661s16,54.608,16,54.608l.564,1415.209s2.63,49.664-20,73.363-70.519,21.435-70.519,21.435H-533.154l22.495-111.832,693.335.706,322.146.328h91.586v-86.833l.578-1286.781h-488s-56.785,3.606-76.865-14.562S13.954,1142.3,13.954,1142.3,11.567,731.625,11.567,97.595H-797.85Z" transform="translate(412.65 2091.69)" stroke="rgba(0,0,0,0)" stroke-width="1" fill="url(#t)"/></g></g></svg>